# xmcd
#
# Track frame offsets:
#	150
#	11510
#	28932
#	43681
#	58052
#	70379
#	87053
#	105398
#	122773
#	137404
#	153600
#	165602
#	181552
#	196555
#	209257
#	224054
#	236664
#	253649
#
# Disc length: 3620 seconds
# Revision: 0
# Processed by: cddbd v1.5.2PL0 Copyright (c) Steve Scherf et al.
# Submitted via: dBpowerAMP V12.0
#
DISCID=f50e2212
DTITLE=Various Artist - Kross Kut Records Volume 5
DYEAR=2010
DGENRE=Country
TTITLE0=Lindsay Waddington/Charley Boyter - Leave Him In The Longyard
TTITLE1=Glenn Jones - Big Clumper Buck Jumper
TTITLE2=Jamie Davis - Australia Calling
TTITLE3=Michelle Walker - Close To Me
TTITLE4=Neil Buttsworth - Tell Me That You'll Love Me
TTITLE5=Dan Manning - Hammer Goin' Down
TTITLE6=Col Edmonds - Now I'm Easy
TTITLE7=Various Artist - Ol Bawly
TTITLE8=Grant Hart - Walk A Country Mile
TTITLE9=Lex K - Sequel To The Judas Bullocks
TTITLE10=Dell Klupfel - High On The Hilltop
TTITLE11=Borris Bajric - You Can Never Go Back
TTITLE12=Lloyd Back - Hazelwood
TTITLE13=Terry Gordon - KB Blues
TTITLE14=Royce Everingham - Outback Woman
TTITLE15=Barry Glasby - Drovers Of The Plains
TTITLE16=The Gibsons - Doin' Not Dreaming
TTITLE17=Peter Salata - When The Sun Sets In Killarney
EXTD=
EXTT0=
EXTT1=
EXTT2=
EXTT3=
EXTT4=
EXTT5=
EXTT6=
EXTT7=
EXTT8=
EXTT9=
EXTT10=
EXTT11=
EXTT12=
EXTT13=
EXTT14=
EXTT15=
EXTT16=
EXTT17=
PLAYORDER=
